<?xml version="1.0" encoding="utf-8"?>
<!-- Generator: Adobe Illustrator 16.0.0, SVG Export Plug-In . SVG Version: 6.00 Build 0)  -->
<!DOCTYPE svg PUBLIC "-//W3C//DTD SVG 1.1//EN" "http://www.w3.org/Graphics/SVG/1.1/DTD/svg11.dtd">
<svg version="1.1" id="Layer_1" xmlns="http://www.w3.org/2000/svg" xmlns:xlink="http://www.w3.org/1999/xlink" x="0px" y="0px"
	 width="1153.238px" height="443.977px" viewBox="0 0 1153.238 443.977" enable-background="new 0 0 1153.238 443.977"
	 xml:space="preserve">
<g>
	<g>
		<g>
			<defs>
				<rect id="SVGID_1_" x="-3" width="1179.117" height="440.979"/>
			</defs>
			<clipPath id="SVGID_2_">
				<use xlink:href="#SVGID_1_"  overflow="visible"/>
			</clipPath>
			<path clip-path="url(#SVGID_2_)" d="M662.508,298.709V98.378c0-3.99,3.597-7.224,8.029-7.224h31.521
				c4.436,0,8.031,3.233,8.031,7.224v157.667c0,3.988,3.595,7.223,8.027,7.223h80.285c3.203,0,6.102,1.711,7.37,4.354
				c4.198,8.742,9.622,20.17,13.455,28.262c2.256,4.767-1.634,10.05-7.392,10.05h-141.3
				C666.104,305.934,662.508,302.7,662.508,298.709"/>
		</g>
	</g>
	<g>
		<g>
			<defs>
				<rect id="SVGID_3_" x="-3" width="1179.117" height="440.979"/>
			</defs>
			<clipPath id="SVGID_4_">
				<use xlink:href="#SVGID_3_"  overflow="visible"/>
			</clipPath>
			<path clip-path="url(#SVGID_4_)" d="M589.526,161.485c-1.244-3.62-2.388-6.947-3.48-10.127c-0.629-1.831,0.444-3.787,2.44-4.453
				c5.76-1.921,10.827-3.429,15.378-5.578c8.367-3.95,15.049-9.137,13.141-19.209c-1.431-7.524-7.896-14.312-16.72-17.097
				c-8.665-2.734-18.353-0.558-22.656,5.103c-7.532,9.904-6.119,21.797-2.707,33.833c4.648,16.413,10.613,32.766,15.102,49.183
				c6.032,22.061,8.659,43.899,2.572,64.44c-6.481,21.879-20.438,37.957-46.422,45.805c-18.188,5.492-36.562,2.887-55.646-3.256
				c-8.348-2.688-17.353-5.732-24.266-10.568c-36.049-25.223-52.408-63.422-31.654-94.988c11.277-17.152,29.3-28.186,51.771-34.025
				c15.908-4.135,32.914-6.339,49.569-9.084c6.394-1.053,9.396,1.316,9.878,7.122c1.409,16.93,3.486,14.411-13.631,19.497
				c-16.992,5.05-32.823,11.624-43.314,23.984c-6.831,8.045-8.928,17.534-2.527,28.065c7.023,11.555,18.366,20.154,33.212,21.889
				c15.416,1.799,29.984-3.123,36.211-18.895c5.813-14.723,6.285-30.583,3.942-46.974c-2.317-16.209-5.646-32.484-7.439-48.649
				c-1.198-10.795,0.729-21.086,5.669-30.395c6.625-12.485,21.957-18.878,37.914-15.662c17.878,3.604,33.056,15.829,36.887,30.785
				c3.657,14.285-3.414,24.401-15.054,31.863c-5.77,3.698-12.646,6.305-19.226,9.139c-1.237,0.535-2.797,0.643-4.754,0.791
				C591.832,164.166,590.089,163.11,589.526,161.485"/>
		</g>
	</g>
	<g>
		<g>
			<defs>
				<rect id="SVGID_5_" x="-3" width="1179.117" height="440.979"/>
			</defs>
			<clipPath id="SVGID_6_">
				<use xlink:href="#SVGID_5_"  overflow="visible"/>
			</clipPath>
			<path clip-path="url(#SVGID_6_)" d="M228.224,305.934H66.049c-2.952,0-5.348-2.147-5.354-4.807L60.22,95.836
				c-0.007-2.664,2.392-4.826,5.354-4.826h114.732c3.164,0,6.031,1.674,7.319,4.274l14.559,29.359
				c1.632,3.293-1.047,7.008-5.057,7.008h-88.753c-1.7,0-3.079,1.239-3.079,2.769v40.235c0,1.49,1.344,2.698,3,2.701
				c5.677,0.014,11.856,0.039,41.571,0.055c2.404,0.002,4.532,1.428,5.21,3.502l9.991,30.584c1.048,3.206-1.629,6.416-5.343,6.417
				c-33.129,0.012-44.853,0.109-51.885,0.44c-1.597,0.076-2.842,1.26-2.842,2.699v41.528c0,1.479,1.299,2.696,2.939,2.769
				c17.321,0.739-26.396,0.17-3.036,0.274c15.641,0.082,78.391,0.071,110.248,0.047c2.22-0.002,4.202,1.228,4.997,3.088
				l13.073,30.634C234.568,302.545,231.98,305.934,228.224,305.934"/>
		</g>
	</g>
	<g>
		<g>
			<defs>
				<rect id="SVGID_7_" x="-3" width="1179.117" height="440.979"/>
			</defs>
			<clipPath id="SVGID_8_">
				<use xlink:href="#SVGID_7_"  overflow="visible"/>
			</clipPath>
			<path clip-path="url(#SVGID_8_)" fill="#E82329" d="M212.838,217.804h-36.875c-1.753,0-3.303-1.022-3.829-2.527l-11.649-33.287
				c-0.813-2.327,1.118-4.695,3.831-4.695h35.708c1.711,0,3.233,0.975,3.793,2.43l12.814,33.286
				C217.536,215.357,215.598,217.804,212.838,217.804"/>
		</g>
	</g>
	<g>
		<g>
			<defs>
				<rect id="SVGID_9_" x="-3" width="1179.117" height="440.979"/>
			</defs>
			<clipPath id="SVGID_10_">
				<use xlink:href="#SVGID_9_"  overflow="visible"/>
			</clipPath>
			<path clip-path="url(#SVGID_10_)" fill="#E82329" d="M282.867,305.934h-37.651c-1.654,0-3.142-0.914-3.741-2.303l-14.39-33.287
				c-1.023-2.367,0.918-4.92,3.742-4.92h36.896c1.631,0,3.099,0.887,3.716,2.242l15.146,33.287
				C287.664,303.331,285.721,305.934,282.867,305.934"/>
		</g>
	</g>
	<g>
		<g>
			<defs>
				<rect id="SVGID_11_" x="-3" width="1179.117" height="440.979"/>
			</defs>
			<clipPath id="SVGID_12_">
				<use xlink:href="#SVGID_11_"  overflow="visible"/>
			</clipPath>
			<path clip-path="url(#SVGID_12_)" fill="#E82329" d="M955.236,305.934c3.303,0,6.271-1.817,7.478-4.584
				c5.832-13.371,22.928-52.551,31.092-71.146c7.1-16.169,14.713-32.178,22.714-48.005c9.259-18.313,18.854-36.502,28.92-54.465
				c14.021-25.016,29.374-49.387,46.713-72.687c6.746-9.067,14.121-17.756,21.209-26.62c0.229-0.283,0.428-0.582,0.303-1.216
				c-5.42,3.318-10.901,6.555-16.248,9.97c-21.063,13.458-40.349,28.755-58.319,45.446c-15.657,14.542-30.111,29.989-43.568,46.185
				c-17.362,20.899-33.076,42.791-47.063,65.643c-7.857,12.84-15.395,25.861-22.443,39.072
				c-8.119,15.217-22.264,46.49-29.411,62.496c-2.118,4.746,1.769,9.91,7.454,9.91H955.236L955.236,305.934z"/>
		</g>
	</g>
	<g>
		<g>
			<defs>
				<rect id="SVGID_13_" x="-3" width="1179.117" height="440.979"/>
			</defs>
			<clipPath id="SVGID_14_">
				<use xlink:href="#SVGID_13_"  overflow="visible"/>
			</clipPath>
			<path clip-path="url(#SVGID_14_)" d="M1002.389,102.631c0,0-81.676,107.189-113.735,167.563
				c-1.489,2.808-5.949,2.742-7.313-0.114c-12.703-26.599-56.366-118.054-80.405-168.625c-2.261-4.754,1.602-10.036,7.351-10.058
				c10.337-0.04,25.053-0.089,34.859-0.111c3.212-0.007,6.119,1.7,7.394,4.353c16.136,33.592,31.176,68.342,47.734,102.907
				c1.187,2.473,4.868,2.949,6.772,0.868C924.004,178.702,1002.389,102.631,1002.389,102.631"/>
		</g>
	</g>
</g>
<g>
	<path d="M985.056,301.479v-9.489h-3.983v-1.847h10.191v1.847h-3.983v9.489H985.056z"/>
	<path d="M993.597,301.479v-11.336h2.351l3.821,5.359l3.822-5.359h2.351v11.336h-2.207v-8.129l-3.966,5.344h-0.071l-3.93-5.313
		v8.098H993.597z"/>
</g>
<g>
	<g>
		<g>
			<defs>
				<rect id="SVGID_15_" x="-3" width="1179.117" height="440.979"/>
			</defs>
			<clipPath id="SVGID_16_">
				<use xlink:href="#SVGID_15_"  overflow="visible"/>
			</clipPath>
			<path clip-path="url(#SVGID_16_)" d="M285.801,90.904c2.205,0,4.184,1.205,4.99,3.051c6.319,14.455,33.563,76.575,48.118,106.627
				c0.652,1.342,2.75,1.384,3.479,0.074c1.207-2.173,2.284-4.107,3.238-6.088c11.355-23.589,22.649-47.202,33.997-70.795
				c3.22-6.692,8.863-20.594,11.827-27.992c1.172-2.929,4.264-4.877,7.726-4.877h39.058c3.874,0,6.469,3.579,4.897,6.764
				c-15.438,31.242-79.873,168.313-98.408,205.004c-1.913,3.789-7.896,3.758-9.767-0.047
				c-29.217-59.508-83.407-176.258-97.22-204.308c-1.553-3.152,0.976-6.704,4.809-6.763L285.801,90.904z"/>
		</g>
	</g>
</g>
<g>
	<path fill="#9D9EA0" d="M514.001,399.192c0,1.743-0.352,3.274-1.051,4.592c-0.699,1.313-1.662,2.418-2.886,3.303
		c-1.225,0.887-2.656,1.553-4.293,1.996c-1.638,0.443-3.396,0.664-5.271,0.664h-5.582v9.012h-7.349v-30.034h13.646
		c2.003,0,3.793,0.25,5.367,0.75c1.572,0.5,2.908,1.209,4.008,2.123c1.097,0.918,1.938,2.01,2.526,3.282s0.884,2.683,0.884,4.228
		V399.192L514.001,399.192z M506.56,399.235c0-1.488-0.534-2.617-1.599-3.392c-1.066-0.771-2.521-1.158-4.365-1.158h-5.677v9.185
		h5.818c1.843,0,3.275-0.438,4.292-1.312c1.021-0.871,1.528-1.95,1.528-3.237L506.56,399.235L506.56,399.235z"/>
	<path fill="#9D9EA0" d="M539.715,418.758l-7.156-9.61h-5.772v9.61h-7.347v-30.035h15.266c3.978,0,7.068,0.873,9.279,2.615
		c2.209,1.746,3.315,4.18,3.315,7.295v0.088c0,2.433-0.661,4.412-1.98,5.941c-1.32,1.531-3.046,2.654-5.176,3.369l8.157,10.727
		H539.715z M539.856,398.977c0-1.43-0.509-2.502-1.526-3.217c-1.019-0.717-2.434-1.072-4.244-1.072h-7.301v8.623h7.442
		c1.813,0,3.203-0.385,4.174-1.157c0.969-0.771,1.455-1.804,1.455-3.088V398.977L539.856,398.977z"/>
	<path fill="#9D9EA0" d="M553.927,418.758v-30.035h25.141v5.879h-17.89v6.095h15.743v5.877h-15.743v6.309h18.128v5.877
		L553.927,418.758L553.927,418.758z"/>
	<path fill="#9D9EA0" d="M609.078,413.846c-0.601,1.158-1.438,2.131-2.512,2.916c-1.075,0.787-2.354,1.392-3.846,1.804
		c-1.49,0.416-3.144,0.622-4.954,0.622c-2.545,0-5.041-0.395-7.489-1.18c-2.449-0.787-4.676-1.996-6.679-3.627l4.342-4.676
		c1.526,1.115,3.092,2.002,4.698,2.658c1.604,0.66,3.361,0.985,5.271,0.985c1.526,0,2.711-0.25,3.556-0.75
		c0.842-0.5,1.264-1.192,1.264-2.082v-0.084c0-0.43-0.088-0.809-0.262-1.137c-0.178-0.33-0.512-0.637-1.003-0.924
		c-0.492-0.287-1.178-0.572-2.053-0.859c-0.874-0.283-2.012-0.584-3.41-0.897c-1.686-0.371-3.214-0.787-4.578-1.244
		c-1.368-0.459-2.528-1.023-3.481-1.695c-0.954-0.672-1.694-1.508-2.219-2.51c-0.525-1.002-0.788-2.246-0.788-3.734v-0.086
		c0-1.371,0.285-2.607,0.854-3.711c0.568-1.102,1.366-2.053,2.395-2.854c1.025-0.801,2.254-1.416,3.68-1.846
		c1.425-0.429,2.997-0.646,4.715-0.646c2.448,0,4.699,0.33,6.75,0.987c2.051,0.656,3.938,1.603,5.652,2.832l-3.815,4.978
		c-1.495-0.914-2.959-1.638-4.39-2.166c-1.431-0.53-2.861-0.795-4.293-0.795c-1.434,0-2.504,0.252-3.22,0.752
		c-0.718,0.5-1.073,1.123-1.073,1.865v0.086c0,0.488,0.103,0.91,0.311,1.266c0.206,0.359,0.58,0.683,1.12,0.967
		c0.541,0.285,1.28,0.56,2.218,0.814c0.938,0.258,2.124,0.559,3.557,0.9c1.685,0.399,3.188,0.852,4.508,1.354
		c1.318,0.5,2.433,1.102,3.339,1.801c0.906,0.701,1.591,1.523,2.052,2.47c0.461,0.942,0.691,2.071,0.691,3.389v0.086
		C609.979,411.364,609.679,412.688,609.078,413.846z"/>
	<path fill="#9D9EA0" d="M616.419,418.758v-30.035h25.141v5.879h-17.889v6.095h15.74v5.877h-15.74v6.309h18.127v5.877
		L616.419,418.758L616.419,418.758z"/>
	<path fill="#9D9EA0" d="M671.802,418.758l-16.172-19.094v19.094h-7.251v-30.035h6.772l15.646,18.492v-18.492h7.251v30.035H671.802z
		"/>
	<path fill="#9D9EA0" d="M701.187,394.814v23.941h-7.347v-23.941h-10.16v-6.092h27.667v6.092H701.187z"/>
	<path fill="#9D9EA0" d="M716.976,418.758v-30.035h25.14v5.879h-17.889v6.095h15.742v5.877h-15.742v6.309h18.127v5.877
		L716.976,418.758L716.976,418.758z"/>
	<path fill="#9D9EA0" d="M779.705,403.741c0,2.115-0.429,4.092-1.285,5.92c-0.858,1.832-2.076,3.42-3.649,4.764
		c-1.574,1.344-3.451,2.402-5.63,3.176c-2.179,0.771-4.572,1.158-7.179,1.158h-13.023v-30.034h13.023c2.604,0,5,0.379,7.179,1.137
		s4.056,1.811,5.63,3.154c1.573,1.344,2.791,2.924,3.649,4.739c0.856,1.816,1.285,3.783,1.285,5.9V403.741z M772.026,403.741
		c0-1.314-0.246-2.533-0.74-3.646c-0.49-1.117-1.177-2.073-2.051-2.875c-0.875-0.801-1.933-1.424-3.173-1.866
		c-1.24-0.443-2.607-0.666-4.102-0.666h-5.68v18.106h5.68c1.492,0,2.859-0.215,4.102-0.643c1.24-0.433,2.298-1.045,3.173-1.847
		c0.874-0.801,1.561-1.746,2.051-2.832c0.494-1.088,0.74-2.303,0.74-3.646V403.741z"/>
	<path fill="#9D9EA0" d="M828.888,410.52c0,1.373-0.294,2.574-0.882,3.604c-0.586,1.031-1.43,1.889-2.523,2.574
		c-1.096,0.688-2.413,1.201-3.952,1.547c-1.541,0.342-3.248,0.514-5.121,0.514h-15.856v-30.034h15.478c3.429,0,6.117,0.7,8.07,2.104
		c1.952,1.4,2.928,3.289,2.928,5.664v0.084c0,0.856-0.118,1.617-0.354,2.272c-0.237,0.658-0.555,1.252-0.948,1.781
		c-0.396,0.529-0.854,0.994-1.375,1.396c-0.521,0.399-1.082,0.741-1.682,1.026c1.93,0.658,3.447,1.554,4.558,2.685
		c1.106,1.131,1.663,2.694,1.663,4.696v0.086H828.888L828.888,410.52z M819.776,397.604c0-1-0.413-1.768-1.241-2.295
		c-0.825-0.529-2.019-0.793-3.577-0.793h-7.251v6.351h6.774c1.621,0,2.909-0.25,3.863-0.752c0.955-0.5,1.432-1.31,1.432-2.424
		V397.604L819.776,397.604z M821.637,409.618c0-1-0.43-1.793-1.288-2.381c-0.858-0.586-2.242-0.879-4.15-0.879h-8.491v6.604h8.729
		c1.622,0,2.895-0.262,3.817-0.793c0.921-0.529,1.383-1.352,1.383-2.467V409.618L821.637,409.618z"/>
	<path fill="#9D9EA0" d="M850.353,406.786v11.973h-7.347v-11.844l-12.831-18.19h8.586l7.967,12.057l8.109-12.057h8.349
		L850.353,406.786z"/>
</g>
<g>
	<g>
		<g>
			<defs>
				<rect id="SVGID_17_" x="-3" width="1179.117" height="440.979"/>
			</defs>
			<clipPath id="SVGID_18_">
				<use xlink:href="#SVGID_17_"  overflow="visible"/>
			</clipPath>
			<path clip-path="url(#SVGID_18_)" fill="#28247B" d="M911.24,386.398c0.27,0,0.534,0.058,0.916,0.101
				c-1.376,4.192-2.729,8.321-4.174,12.738c-5.881-3.828-11.629-7.568-17.655-11.49c-3.016,10.328-5.967,20.436-9.026,30.92
				c8.029-3.42,15.677-6.676,23.591-10.047c-0.504,1.854-0.92,3.455-1.373,5.045c-0.561,1.967-1.191,3.916-1.704,5.893
				c-0.233,0.894-0.723,1.187-1.724,1.175c-6.287-0.062-12.577-0.058-18.863-0.144c-0.578-0.01-1.326-0.385-1.688-0.807
				c-2.533-2.945-5.016-5.935-7.438-8.957c-0.338-0.424-0.489-1.176-0.338-1.683c1.652-5.563,3.359-11.116,5.126-16.656
				c0.161-0.504,0.724-1.061,1.26-1.289c3.629-1.538,7.295-3.008,10.961-4.471c0.495-0.195,1.063-0.348,1.597-0.348"/>
		</g>
	</g>
	<g>
		<g>
			<defs>
				<rect id="SVGID_19_" x="-3" width="1179.117" height="440.979"/>
			</defs>
			<clipPath id="SVGID_20_">
				<use xlink:href="#SVGID_19_"  overflow="visible"/>
			</clipPath>
			<path clip-path="url(#SVGID_20_)" fill="#28247B" d="M924.263,418.639c0.525,0.041,0.881,0.119,1.225,0.093
				c0.874-0.072,1.259,0.188,1.255,1.038c-0.002,0.839-0.375,1.063-1.248,1.06c-6.061-0.029-12.119-0.039-18.183-0.023
				c-0.985,0.002-1.261-0.348-1.266-1.194c-0.003-0.91,0.521-0.984,1.309-0.996c2.327-0.033,2.3-0.062,2.913-2.074
				c1.4-4.602,2.832-9.193,4.242-13.791c1.462-4.756,2.912-9.514,4.416-14.438c-0.764-0.158-1.489-0.31-2.258-0.47
				c-0.151-0.756-0.27-1.409,0.996-1.396c6.244,0.08,12.491,0.133,18.735,0.197c0.133,0,0.27,0.045,0.479,0.082
				c0.423,0.971,0.154,1.5-1.108,1.369c-1.318-0.136-1.895,0.295-2.277,1.524c-2.396,7.705-4.929,15.375-7.398,23.063
				C925.469,414.618,924.897,416.569,924.263,418.639"/>
		</g>
	</g>
	<g>
		<g>
			<defs>
				<rect id="SVGID_21_" x="-3" width="1179.117" height="440.979"/>
			</defs>
			<clipPath id="SVGID_22_">
				<use xlink:href="#SVGID_21_"  overflow="visible"/>
			</clipPath>
			<path clip-path="url(#SVGID_22_)" fill="#28247B" d="M941.641,388.426c-0.99-0.459-2.778,0.299-2.214-1.652h20.28
				c0.444,1.369,0.321,1.623-1.101,1.468c-1.457-0.16-2.02,0.401-2.381,1.551c-2.232,7.106-4.509,14.201-6.771,21.299
				c-0.715,2.23-1.444,4.455-2.163,6.685c-0.102,0.313-0.174,0.629-0.283,1.053c1.194,0.274,3.314-0.379,2.382,1.973h-20.313v-1.916
				c0.137-0.104,0.172-0.149,0.207-0.156c1.07-0.11,2.464,0.105,3.127-0.42c0.699-0.557,0.721-1.815,1.011-2.774
				c1.26-4.16,2.492-8.33,3.77-12.486c1.37-4.473,2.776-8.938,4.161-13.409C941.472,389.243,941.544,388.84,941.641,388.426"/>
		</g>
	</g>
</g>
<g>
	<path d="M61.161,355.84v-27.688h20.427v4.351H66.003v7.199h13.814v4.352H66.003v7.436h15.782v4.352H61.161z"/>
	<path d="M89.499,355.84v-27.688h5.156l8.383,13.093l8.383-13.093h5.156v27.688h-4.841v-19.856l-8.698,13.053h-0.157l-8.62-12.974
		v19.777H89.499z"/>
	<path d="M125.629,355.84v-27.688h10.863c3.201,0,5.746,0.844,7.635,2.531s2.834,3.93,2.834,6.725v0.079
		c0,2.98-1.043,5.3-3.129,6.962c-2.086,1.661-4.717,2.491-7.891,2.491h-5.471v8.9H125.629z M130.47,342.549h5.628
		c1.811,0,3.253-0.461,4.329-1.384c1.076-0.923,1.614-2.109,1.614-3.561v-0.079c0-1.582-0.531-2.802-1.594-3.658
		c-1.063-0.857-2.513-1.286-4.349-1.286h-5.628V342.549z"/>
	<path d="M177.384,352.122c-2.729,2.795-6.179,4.192-10.351,4.192s-7.609-1.385-10.312-4.153c-2.703-2.769-4.054-6.131-4.054-10.087
		v-0.079c0-3.955,1.364-7.33,4.093-10.126c2.729-2.795,6.179-4.192,10.351-4.192s7.609,1.384,10.312,4.153
		c2.702,2.769,4.054,6.131,4.054,10.086v0.079C181.477,345.951,180.112,349.327,177.384,352.122z M160.401,348.977
		c1.771,1.913,4.008,2.868,6.71,2.868c2.702,0,4.926-0.942,6.671-2.828c1.745-1.885,2.617-4.199,2.617-6.942v-0.079
		c0-2.742-0.886-5.069-2.657-6.981c-1.771-1.911-4.008-2.867-6.71-2.867c-2.703,0-4.926,0.943-6.671,2.828
		c-1.746,1.886-2.617,4.199-2.617,6.941v0.079C157.744,344.738,158.63,347.065,160.401,348.977z"/>
	<path d="M195.291,356.038l-9.603-27.887h5.234l6.573,20.529l6.77-20.608h4.093l6.769,20.608l6.573-20.529h5.077l-9.603,27.887
		h-4.172l-6.77-19.896l-6.77,19.896H195.291z"/>
	<path d="M233.703,355.84v-27.688h20.427v4.351h-15.585v7.199h13.814v4.352h-13.814v7.436h15.782v4.352H233.703z"/>
	<path d="M262.041,355.84v-27.688h12.28c3.411,0,6.061,0.923,7.95,2.769c1.521,1.582,2.283,3.573,2.283,5.973v0.079
		c0,2.189-0.59,3.989-1.771,5.399c-1.181,1.411-2.782,2.407-4.802,2.986l7.438,10.482h-5.707l-6.77-9.651h-6.061v9.651H262.041z
		 M266.882,341.877h7.084c1.732,0,3.109-0.422,4.133-1.266c1.023-0.844,1.535-1.965,1.535-3.362v-0.079
		c0-1.477-0.499-2.61-1.496-3.402c-0.997-0.791-2.4-1.187-4.211-1.187h-7.045V341.877z"/>
	<path d="M292.74,355.84v-27.688h4.841v27.688H292.74z"/>
	<path d="M306.907,355.84v-27.688h4.487l14.759,19.145v-19.145h4.762v27.688h-4.054l-15.192-19.698v19.698H306.907z"/>
	<path d="M353.034,356.314c-4.25,0-7.694-1.351-10.332-4.055c-2.637-2.702-3.955-6.098-3.955-10.186v-0.079
		c0-3.955,1.344-7.33,4.034-10.126c2.689-2.795,6.081-4.192,10.174-4.192c2.309,0,4.276,0.31,5.903,0.93
		c1.626,0.619,3.188,1.562,4.684,2.828l-3.07,3.679c-1.155-1.002-2.316-1.747-3.483-2.235c-1.168-0.487-2.578-0.731-4.231-0.731
		c-2.519,0-4.638,0.956-6.356,2.867c-1.719,1.912-2.578,4.213-2.578,6.902v0.079c0,2.875,0.866,5.241,2.597,7.101
		c1.732,1.859,3.988,2.789,6.77,2.789c2.571,0,4.788-0.699,6.651-2.097v-5.182h-7.045v-4.232h11.729v11.629
		C361.194,354.878,357.364,356.314,353.034,356.314z"/>
	<path d="M386.566,355.84v-27.688h5.156l8.383,13.093l8.383-13.093h5.156v27.688h-4.841v-19.856l-8.698,13.053h-0.157l-8.62-12.974
		v19.777H386.566z"/>
	<path d="M422.971,355.84v-27.688h4.841v27.688H422.971z"/>
	<path d="M437.139,355.84v-27.688h4.841v23.258h14.483v4.431H437.139z"/>
	<path d="M463.469,355.84v-27.688h4.841v23.258h14.483v4.431H463.469z"/>
	<path d="M490.074,355.84v-27.688h4.841v27.688H490.074z"/>
	<path d="M527.739,352.122c-2.729,2.795-6.179,4.192-10.351,4.192s-7.609-1.385-10.312-4.153c-2.703-2.769-4.054-6.131-4.054-10.087
		v-0.079c0-3.955,1.364-7.33,4.093-10.126c2.729-2.795,6.179-4.192,10.351-4.192s7.609,1.384,10.312,4.153
		c2.702,2.769,4.054,6.131,4.054,10.086v0.079C531.832,345.951,530.467,349.327,527.739,352.122z M510.756,348.977
		c1.771,1.913,4.008,2.868,6.71,2.868c2.702,0,4.926-0.942,6.671-2.828c1.745-1.885,2.617-4.199,2.617-6.942v-0.079
		c0-2.742-0.886-5.069-2.657-6.981c-1.771-1.911-4.008-2.867-6.71-2.867c-2.703,0-4.926,0.943-6.671,2.828
		c-1.746,1.886-2.617,4.199-2.617,6.941v0.079C508.099,344.738,508.985,347.065,510.756,348.977z"/>
	<path d="M539.663,355.84v-27.688h4.487l14.759,19.145v-19.145h4.762v27.688h-4.054l-15.192-19.698v19.698H539.663z"/>
	<path d="M586.498,355.84v-27.688h20.427v4.351h-15.586v7.199h13.814v4.352h-13.814v7.436h15.782v4.352H586.498z"/>
	<path d="M614.835,355.84v-27.688h4.487l14.759,19.145v-19.145h4.762v27.688h-4.054l-15.191-19.698v19.698H614.835z"/>
	<path d="M654.665,355.84v-23.18h-8.737v-4.509h22.355v4.509h-8.737v23.18H654.665z"/>
	<path d="M675.366,355.84v-27.688h12.279c3.411,0,6.062,0.923,7.95,2.769c1.521,1.582,2.283,3.573,2.283,5.973v0.079
		c0,2.189-0.591,3.989-1.771,5.399c-1.181,1.411-2.781,2.407-4.802,2.986l7.439,10.482h-5.707l-6.77-9.651h-6.062v9.651H675.366z
		 M680.207,341.877h7.085c1.731,0,3.109-0.422,4.132-1.266c1.023-0.844,1.535-1.965,1.535-3.362v-0.079
		c0-1.477-0.499-2.61-1.495-3.402c-0.998-0.791-2.401-1.187-4.212-1.187h-7.045V341.877z"/>
	<path d="M705.789,355.84v-27.688h20.427v4.351H710.63v7.199h13.814v4.352H710.63v7.436h15.782v4.352H705.789z"/>
	<path d="M734.127,355.84v-27.688h10.863c3.2,0,5.746,0.844,7.635,2.531c1.89,1.688,2.834,3.93,2.834,6.725v0.079
		c0,2.98-1.043,5.3-3.129,6.962c-2.086,1.661-4.717,2.491-7.892,2.491h-5.471v8.9H734.127z M738.968,342.549h5.628
		c1.811,0,3.254-0.461,4.33-1.384c1.075-0.923,1.613-2.109,1.613-3.561v-0.079c0-1.582-0.531-2.802-1.594-3.658
		c-1.063-0.857-2.513-1.286-4.35-1.286h-5.628V342.549z"/>
	<path d="M762.385,355.84v-27.688h12.279c3.411,0,6.062,0.923,7.95,2.769c1.521,1.582,2.283,3.573,2.283,5.973v0.079
		c0,2.189-0.591,3.989-1.771,5.399c-1.181,1.411-2.781,2.407-4.802,2.986l7.439,10.482h-5.707l-6.77-9.651h-6.062v9.651H762.385z
		 M767.226,341.877h7.085c1.731,0,3.109-0.422,4.132-1.266c1.023-0.844,1.535-1.965,1.535-3.362v-0.079
		c0-1.477-0.499-2.61-1.495-3.402c-0.998-0.791-2.401-1.187-4.212-1.187h-7.045V341.877z"/>
	<path d="M792.808,355.84v-27.688h20.427v4.351h-15.586v7.199h13.814v4.352h-13.814v7.436h15.782v4.352H792.808z"/>
	<path d="M821.145,355.84v-27.688h4.487l14.759,19.145v-19.145h4.762v27.688h-4.054l-15.191-19.698v19.698H821.145z"/>
	<path d="M854.205,355.84v-27.688h20.427v4.351h-15.586v7.199h13.814v4.352h-13.814v7.436h15.782v4.352H854.205z"/>
	<path d="M893.839,356.275c-3.647,0-6.514-1.042-8.6-3.125s-3.129-5.103-3.129-9.059v-15.94h4.841v15.743
		c0,2.531,0.616,4.483,1.85,5.854c1.233,1.372,2.938,2.058,5.116,2.058s3.877-0.659,5.098-1.979c1.22-1.318,1.83-3.229,1.83-5.735
		v-15.94h4.841v15.703c0,4.035-1.05,7.114-3.148,9.236C900.437,355.214,897.538,356.275,893.839,356.275z"/>
	<path d="M914.303,355.84v-27.688h12.279c3.411,0,6.062,0.923,7.95,2.769c1.521,1.582,2.283,3.573,2.283,5.973v0.079
		c0,2.189-0.591,3.989-1.771,5.399c-1.181,1.411-2.781,2.407-4.802,2.986l7.439,10.482h-5.707l-6.77-9.651h-6.062v9.651H914.303z
		 M919.144,341.877h7.085c1.731,0,3.109-0.422,4.132-1.266c1.023-0.844,1.535-1.965,1.535-3.362v-0.079
		c0-1.477-0.499-2.61-1.495-3.402c-0.998-0.791-2.401-1.187-4.212-1.187h-7.045V341.877z"/>
	<path d="M954.369,356.235c-4.382,0-8.213-1.477-11.492-4.43l2.912-3.481c2.755,2.4,5.654,3.6,8.698,3.6
		c1.496,0,2.683-0.316,3.562-0.949s1.319-1.477,1.319-2.531v-0.079c0-1.028-0.421-1.846-1.26-2.453
		c-0.84-0.606-2.493-1.199-4.959-1.779c-1.574-0.396-2.887-0.791-3.936-1.188c-1.05-0.396-1.995-0.909-2.834-1.542
		c-0.84-0.633-1.45-1.404-1.83-2.314c-0.381-0.909-0.571-1.983-0.571-3.224v-0.079c0-2.373,0.879-4.305,2.638-5.795
		c1.757-1.489,4.014-2.234,6.77-2.234c3.778,0,7.109,1.16,9.996,3.48l-2.598,3.679c-2.545-1.898-5.037-2.848-7.478-2.848
		c-1.364,0-2.454,0.31-3.267,0.93c-0.813,0.619-1.22,1.403-1.22,2.354v0.079c0,1.081,0.438,1.918,1.318,2.512
		c0.879,0.593,2.617,1.206,5.215,1.839c3.043,0.738,5.279,1.721,6.71,2.947c1.43,1.226,2.146,2.946,2.146,5.162v0.079
		c0,2.558-0.905,4.575-2.716,6.052S957.307,356.235,954.369,356.235z"/>
</g>
</svg>
